<mxfile host="app.diagrams.net" agent="Mozilla/5.0 (Windows NT 10.0; Win64; x64; rv:135.0) Gecko/20100101 Firefox/135.0" version="26.0.15">
  <diagram name="Страница — 1" id="sDsJkAFC1A9Nc0Rgq0W8">
    <mxGraphModel dx="1708" dy="1982" grid="1" gridSize="10" guides="1" tooltips="1" connect="1" arrows="1" fold="1" page="1" pageScale="1" pageWidth="827" pageHeight="1169" math="0" shadow="0">
      <root>
        <mxCell id="0" />
        <mxCell id="1" parent="0" />
        <mxCell id="dTeIS4s1cG9BcwlWkZZ--52" style="edgeStyle=orthogonalEdgeStyle;rounded=0;orthogonalLoop=1;jettySize=auto;html=1;exitX=0;exitY=0.5;exitDx=0;exitDy=0;entryX=1;entryY=0.5;entryDx=0;entryDy=0;" edge="1" parent="1" source="dTeIS4s1cG9BcwlWkZZ--1" target="dTeIS4s1cG9BcwlWkZZ--3">
          <mxGeometry relative="1" as="geometry" />
        </mxCell>
        <mxCell id="dTeIS4s1cG9BcwlWkZZ--125" value="Состоит из" style="edgeLabel;html=1;align=center;verticalAlign=middle;resizable=0;points=[];" vertex="1" connectable="0" parent="dTeIS4s1cG9BcwlWkZZ--52">
          <mxGeometry x="0.1131" y="3" relative="1" as="geometry">
            <mxPoint as="offset" />
          </mxGeometry>
        </mxCell>
        <mxCell id="dTeIS4s1cG9BcwlWkZZ--75" style="edgeStyle=orthogonalEdgeStyle;rounded=0;orthogonalLoop=1;jettySize=auto;html=1;exitX=1;exitY=0.5;exitDx=0;exitDy=0;entryX=0.5;entryY=1;entryDx=0;entryDy=0;" edge="1" parent="1" source="dTeIS4s1cG9BcwlWkZZ--1" target="dTeIS4s1cG9BcwlWkZZ--6">
          <mxGeometry relative="1" as="geometry" />
        </mxCell>
        <mxCell id="dTeIS4s1cG9BcwlWkZZ--124" value="Содержит" style="edgeLabel;html=1;align=center;verticalAlign=middle;resizable=0;points=[];" vertex="1" connectable="0" parent="dTeIS4s1cG9BcwlWkZZ--75">
          <mxGeometry x="-0.5605" relative="1" as="geometry">
            <mxPoint as="offset" />
          </mxGeometry>
        </mxCell>
        <mxCell id="dTeIS4s1cG9BcwlWkZZ--82" style="edgeStyle=orthogonalEdgeStyle;rounded=0;orthogonalLoop=1;jettySize=auto;html=1;exitX=0.5;exitY=0;exitDx=0;exitDy=0;entryX=0.5;entryY=1;entryDx=0;entryDy=0;" edge="1" parent="1" source="dTeIS4s1cG9BcwlWkZZ--1" target="dTeIS4s1cG9BcwlWkZZ--81">
          <mxGeometry relative="1" as="geometry" />
        </mxCell>
        <mxCell id="dTeIS4s1cG9BcwlWkZZ--122" value="Включает" style="edgeLabel;html=1;align=center;verticalAlign=middle;resizable=0;points=[];" vertex="1" connectable="0" parent="dTeIS4s1cG9BcwlWkZZ--82">
          <mxGeometry x="-0.3294" y="-1" relative="1" as="geometry">
            <mxPoint as="offset" />
          </mxGeometry>
        </mxCell>
        <mxCell id="dTeIS4s1cG9BcwlWkZZ--1" value="Город" style="rounded=1;whiteSpace=wrap;html=1;fillColor=#ffe6cc;strokeColor=#d79b00;" vertex="1" parent="1">
          <mxGeometry x="504.12" y="337.06" width="160" height="80" as="geometry" />
        </mxCell>
        <mxCell id="dTeIS4s1cG9BcwlWkZZ--15" style="edgeStyle=orthogonalEdgeStyle;rounded=0;orthogonalLoop=1;jettySize=auto;html=1;exitX=0;exitY=0.5;exitDx=0;exitDy=0;entryX=1;entryY=0.5;entryDx=0;entryDy=0;" edge="1" parent="1" source="dTeIS4s1cG9BcwlWkZZ--2" target="dTeIS4s1cG9BcwlWkZZ--11">
          <mxGeometry relative="1" as="geometry" />
        </mxCell>
        <mxCell id="dTeIS4s1cG9BcwlWkZZ--26" style="edgeStyle=orthogonalEdgeStyle;rounded=0;orthogonalLoop=1;jettySize=auto;html=1;exitX=0.5;exitY=1;exitDx=0;exitDy=0;entryX=0.5;entryY=0;entryDx=0;entryDy=0;" edge="1" parent="1" source="dTeIS4s1cG9BcwlWkZZ--2" target="dTeIS4s1cG9BcwlWkZZ--10">
          <mxGeometry relative="1" as="geometry" />
        </mxCell>
        <mxCell id="dTeIS4s1cG9BcwlWkZZ--51" style="edgeStyle=orthogonalEdgeStyle;rounded=0;orthogonalLoop=1;jettySize=auto;html=1;exitX=0.5;exitY=0;exitDx=0;exitDy=0;entryX=0.5;entryY=1;entryDx=0;entryDy=0;" edge="1" parent="1" source="dTeIS4s1cG9BcwlWkZZ--2" target="dTeIS4s1cG9BcwlWkZZ--13">
          <mxGeometry relative="1" as="geometry" />
        </mxCell>
        <mxCell id="dTeIS4s1cG9BcwlWkZZ--101" value="Содержит" style="edgeLabel;html=1;align=center;verticalAlign=middle;resizable=0;points=[];" vertex="1" connectable="0" parent="dTeIS4s1cG9BcwlWkZZ--51">
          <mxGeometry x="-0.0176" y="-3" relative="1" as="geometry">
            <mxPoint as="offset" />
          </mxGeometry>
        </mxCell>
        <mxCell id="dTeIS4s1cG9BcwlWkZZ--73" style="edgeStyle=orthogonalEdgeStyle;rounded=0;orthogonalLoop=1;jettySize=auto;html=1;exitX=1;exitY=0.5;exitDx=0;exitDy=0;entryX=0;entryY=0.5;entryDx=0;entryDy=0;" edge="1" parent="1" source="dTeIS4s1cG9BcwlWkZZ--2" target="dTeIS4s1cG9BcwlWkZZ--28">
          <mxGeometry relative="1" as="geometry" />
        </mxCell>
        <mxCell id="dTeIS4s1cG9BcwlWkZZ--102" value="Содержит" style="edgeLabel;html=1;align=center;verticalAlign=middle;resizable=0;points=[];" vertex="1" connectable="0" parent="dTeIS4s1cG9BcwlWkZZ--73">
          <mxGeometry x="-0.5716" y="-5" relative="1" as="geometry">
            <mxPoint x="34" y="-5" as="offset" />
          </mxGeometry>
        </mxCell>
        <mxCell id="dTeIS4s1cG9BcwlWkZZ--2" value="Маршрут" style="rounded=1;whiteSpace=wrap;html=1;fillColor=#ffe6cc;strokeColor=#d79b00;" vertex="1" parent="1">
          <mxGeometry x="504.12" y="-40" width="160" height="80" as="geometry" />
        </mxCell>
        <mxCell id="dTeIS4s1cG9BcwlWkZZ--35" style="edgeStyle=orthogonalEdgeStyle;rounded=0;orthogonalLoop=1;jettySize=auto;html=1;exitX=0.5;exitY=0;exitDx=0;exitDy=0;entryX=0.5;entryY=1;entryDx=0;entryDy=0;" edge="1" parent="1" source="dTeIS4s1cG9BcwlWkZZ--3" target="dTeIS4s1cG9BcwlWkZZ--21">
          <mxGeometry relative="1" as="geometry" />
        </mxCell>
        <mxCell id="dTeIS4s1cG9BcwlWkZZ--111" value="Содержит" style="edgeLabel;html=1;align=center;verticalAlign=middle;resizable=0;points=[];" vertex="1" connectable="0" parent="dTeIS4s1cG9BcwlWkZZ--35">
          <mxGeometry x="-0.0431" y="1" relative="1" as="geometry">
            <mxPoint as="offset" />
          </mxGeometry>
        </mxCell>
        <mxCell id="dTeIS4s1cG9BcwlWkZZ--55" style="edgeStyle=orthogonalEdgeStyle;rounded=0;orthogonalLoop=1;jettySize=auto;html=1;exitX=0.5;exitY=1;exitDx=0;exitDy=0;entryX=0;entryY=0.5;entryDx=0;entryDy=0;" edge="1" parent="1" source="dTeIS4s1cG9BcwlWkZZ--3" target="dTeIS4s1cG9BcwlWkZZ--36">
          <mxGeometry relative="1" as="geometry" />
        </mxCell>
        <mxCell id="dTeIS4s1cG9BcwlWkZZ--112" value="Включает" style="edgeLabel;html=1;align=center;verticalAlign=middle;resizable=0;points=[];" vertex="1" connectable="0" parent="dTeIS4s1cG9BcwlWkZZ--55">
          <mxGeometry x="0.0474" y="4" relative="1" as="geometry">
            <mxPoint as="offset" />
          </mxGeometry>
        </mxCell>
        <mxCell id="dTeIS4s1cG9BcwlWkZZ--3" value="Районы" style="rounded=1;whiteSpace=wrap;html=1;fillColor=#dae8fc;strokeColor=#6c8ebf;" vertex="1" parent="1">
          <mxGeometry x="294" y="347.06" width="120" height="60" as="geometry" />
        </mxCell>
        <mxCell id="dTeIS4s1cG9BcwlWkZZ--4" value="Население" style="rounded=1;whiteSpace=wrap;html=1;" vertex="1" parent="1">
          <mxGeometry x="90" y="240" width="120" height="60" as="geometry" />
        </mxCell>
        <mxCell id="dTeIS4s1cG9BcwlWkZZ--70" style="edgeStyle=orthogonalEdgeStyle;rounded=0;orthogonalLoop=1;jettySize=auto;html=1;exitX=0.5;exitY=1;exitDx=0;exitDy=0;entryX=0.5;entryY=0;entryDx=0;entryDy=0;" edge="1" parent="1" target="dTeIS4s1cG9BcwlWkZZ--41">
          <mxGeometry relative="1" as="geometry">
            <mxPoint x="964.1199999999999" y="407.06" as="sourcePoint" />
          </mxGeometry>
        </mxCell>
        <mxCell id="dTeIS4s1cG9BcwlWkZZ--72" style="edgeStyle=orthogonalEdgeStyle;rounded=0;orthogonalLoop=1;jettySize=auto;html=1;exitX=0.5;exitY=0;exitDx=0;exitDy=0;entryX=0.5;entryY=1;entryDx=0;entryDy=0;" edge="1" parent="1" source="dTeIS4s1cG9BcwlWkZZ--5" target="dTeIS4s1cG9BcwlWkZZ--9">
          <mxGeometry relative="1" as="geometry" />
        </mxCell>
        <mxCell id="dTeIS4s1cG9BcwlWkZZ--127" value="Включает" style="edgeLabel;html=1;align=center;verticalAlign=middle;resizable=0;points=[];" vertex="1" connectable="0" parent="dTeIS4s1cG9BcwlWkZZ--72">
          <mxGeometry x="-0.0431" y="-6" relative="1" as="geometry">
            <mxPoint as="offset" />
          </mxGeometry>
        </mxCell>
        <mxCell id="dTeIS4s1cG9BcwlWkZZ--100" style="edgeStyle=orthogonalEdgeStyle;rounded=0;orthogonalLoop=1;jettySize=auto;html=1;exitX=0.5;exitY=1;exitDx=0;exitDy=0;entryX=0.5;entryY=0;entryDx=0;entryDy=0;" edge="1" parent="1" source="dTeIS4s1cG9BcwlWkZZ--5" target="dTeIS4s1cG9BcwlWkZZ--36">
          <mxGeometry relative="1" as="geometry">
            <Array as="points">
              <mxPoint x="964" y="430" />
              <mxPoint x="584" y="430" />
            </Array>
          </mxGeometry>
        </mxCell>
        <mxCell id="dTeIS4s1cG9BcwlWkZZ--126" value="Включает" style="edgeLabel;html=1;align=center;verticalAlign=middle;resizable=0;points=[];" vertex="1" connectable="0" parent="dTeIS4s1cG9BcwlWkZZ--100">
          <mxGeometry x="-0.9518" y="1" relative="1" as="geometry">
            <mxPoint y="17" as="offset" />
          </mxGeometry>
        </mxCell>
        <mxCell id="dTeIS4s1cG9BcwlWkZZ--5" value="Дорожные условия" style="rounded=1;whiteSpace=wrap;html=1;fillColor=#dae8fc;strokeColor=#6c8ebf;" vertex="1" parent="1">
          <mxGeometry x="904.12" y="330" width="120" height="60" as="geometry" />
        </mxCell>
        <mxCell id="dTeIS4s1cG9BcwlWkZZ--71" style="edgeStyle=orthogonalEdgeStyle;rounded=0;orthogonalLoop=1;jettySize=auto;html=1;exitX=1;exitY=0.5;exitDx=0;exitDy=0;entryX=0;entryY=0.5;entryDx=0;entryDy=0;" edge="1" parent="1" source="dTeIS4s1cG9BcwlWkZZ--6" target="dTeIS4s1cG9BcwlWkZZ--5">
          <mxGeometry relative="1" as="geometry">
            <Array as="points">
              <mxPoint x="880" y="180" />
              <mxPoint x="880" y="360" />
            </Array>
          </mxGeometry>
        </mxCell>
        <mxCell id="dTeIS4s1cG9BcwlWkZZ--77" style="edgeStyle=orthogonalEdgeStyle;rounded=0;orthogonalLoop=1;jettySize=auto;html=1;exitX=1;exitY=0.5;exitDx=0;exitDy=0;entryX=0;entryY=0.5;entryDx=0;entryDy=0;" edge="1" parent="1" source="dTeIS4s1cG9BcwlWkZZ--6" target="dTeIS4s1cG9BcwlWkZZ--9">
          <mxGeometry relative="1" as="geometry">
            <Array as="points">
              <mxPoint x="880" y="180" />
              <mxPoint x="880" y="270" />
            </Array>
          </mxGeometry>
        </mxCell>
        <mxCell id="dTeIS4s1cG9BcwlWkZZ--78" style="edgeStyle=orthogonalEdgeStyle;rounded=0;orthogonalLoop=1;jettySize=auto;html=1;exitX=1;exitY=0.5;exitDx=0;exitDy=0;entryX=0;entryY=0.5;entryDx=0;entryDy=0;" edge="1" parent="1" source="dTeIS4s1cG9BcwlWkZZ--6" target="dTeIS4s1cG9BcwlWkZZ--8">
          <mxGeometry relative="1" as="geometry" />
        </mxCell>
        <mxCell id="dTeIS4s1cG9BcwlWkZZ--79" style="edgeStyle=orthogonalEdgeStyle;rounded=0;orthogonalLoop=1;jettySize=auto;html=1;exitX=1;exitY=0.5;exitDx=0;exitDy=0;entryX=0;entryY=0.5;entryDx=0;entryDy=0;" edge="1" parent="1" source="dTeIS4s1cG9BcwlWkZZ--6" target="dTeIS4s1cG9BcwlWkZZ--7">
          <mxGeometry relative="1" as="geometry">
            <Array as="points">
              <mxPoint x="880" y="180" />
              <mxPoint x="880" y="90" />
            </Array>
          </mxGeometry>
        </mxCell>
        <mxCell id="dTeIS4s1cG9BcwlWkZZ--80" style="edgeStyle=orthogonalEdgeStyle;rounded=0;orthogonalLoop=1;jettySize=auto;html=1;exitX=1;exitY=0.5;exitDx=0;exitDy=0;entryX=0;entryY=0.5;entryDx=0;entryDy=0;" edge="1" parent="1" source="dTeIS4s1cG9BcwlWkZZ--6" target="dTeIS4s1cG9BcwlWkZZ--28">
          <mxGeometry relative="1" as="geometry">
            <Array as="points">
              <mxPoint x="880" y="180" />
              <mxPoint x="880" />
            </Array>
          </mxGeometry>
        </mxCell>
        <mxCell id="dTeIS4s1cG9BcwlWkZZ--128" value="Содержит" style="edgeLabel;html=1;align=center;verticalAlign=middle;resizable=0;points=[];" vertex="1" connectable="0" parent="dTeIS4s1cG9BcwlWkZZ--80">
          <mxGeometry x="-0.8941" y="-4" relative="1" as="geometry">
            <mxPoint x="25" y="-14" as="offset" />
          </mxGeometry>
        </mxCell>
        <mxCell id="dTeIS4s1cG9BcwlWkZZ--6" value="Дороги" style="rounded=1;whiteSpace=wrap;html=1;fillColor=#dae8fc;strokeColor=#6c8ebf;" vertex="1" parent="1">
          <mxGeometry x="680" y="150" width="120" height="60" as="geometry" />
        </mxCell>
        <mxCell id="dTeIS4s1cG9BcwlWkZZ--7" value="&lt;div&gt;Тип&lt;/div&gt;&amp;nbsp;дороги" style="rounded=1;whiteSpace=wrap;html=1;" vertex="1" parent="1">
          <mxGeometry x="904.12" y="60" width="120" height="60" as="geometry" />
        </mxCell>
        <mxCell id="dTeIS4s1cG9BcwlWkZZ--8" value="Ширина дороги" style="rounded=1;whiteSpace=wrap;html=1;" vertex="1" parent="1">
          <mxGeometry x="904.12" y="150" width="120" height="60" as="geometry" />
        </mxCell>
        <mxCell id="dTeIS4s1cG9BcwlWkZZ--9" value="Состояние дороги" style="rounded=1;whiteSpace=wrap;html=1;" vertex="1" parent="1">
          <mxGeometry x="904.12" y="240" width="120" height="60" as="geometry" />
        </mxCell>
        <mxCell id="dTeIS4s1cG9BcwlWkZZ--117" style="edgeStyle=orthogonalEdgeStyle;rounded=0;orthogonalLoop=1;jettySize=auto;html=1;exitX=0.5;exitY=1;exitDx=0;exitDy=0;entryX=1;entryY=0.5;entryDx=0;entryDy=0;" edge="1" parent="1" source="dTeIS4s1cG9BcwlWkZZ--10" target="dTeIS4s1cG9BcwlWkZZ--22">
          <mxGeometry relative="1" as="geometry" />
        </mxCell>
        <mxCell id="dTeIS4s1cG9BcwlWkZZ--120" value="Содержит" style="edgeLabel;html=1;align=center;verticalAlign=middle;resizable=0;points=[];" vertex="1" connectable="0" parent="dTeIS4s1cG9BcwlWkZZ--117">
          <mxGeometry x="0.2799" relative="1" as="geometry">
            <mxPoint y="-10" as="offset" />
          </mxGeometry>
        </mxCell>
        <mxCell id="dTeIS4s1cG9BcwlWkZZ--118" style="edgeStyle=orthogonalEdgeStyle;rounded=0;orthogonalLoop=1;jettySize=auto;html=1;exitX=0.5;exitY=1;exitDx=0;exitDy=0;entryX=0;entryY=0.5;entryDx=0;entryDy=0;" edge="1" parent="1" source="dTeIS4s1cG9BcwlWkZZ--10" target="dTeIS4s1cG9BcwlWkZZ--6">
          <mxGeometry relative="1" as="geometry" />
        </mxCell>
        <mxCell id="dTeIS4s1cG9BcwlWkZZ--119" value="Состоит из" style="edgeLabel;html=1;align=center;verticalAlign=middle;resizable=0;points=[];" vertex="1" connectable="0" parent="dTeIS4s1cG9BcwlWkZZ--118">
          <mxGeometry x="-0.7216" y="2" relative="1" as="geometry">
            <mxPoint x="58" y="25" as="offset" />
          </mxGeometry>
        </mxCell>
        <mxCell id="dTeIS4s1cG9BcwlWkZZ--10" value="Дорожные участки" style="rounded=1;whiteSpace=wrap;html=1;fillColor=#dae8fc;strokeColor=#6c8ebf;" vertex="1" parent="1">
          <mxGeometry x="524.12" y="60" width="120" height="60" as="geometry" />
        </mxCell>
        <mxCell id="dTeIS4s1cG9BcwlWkZZ--19" style="edgeStyle=orthogonalEdgeStyle;rounded=0;orthogonalLoop=1;jettySize=auto;html=1;exitX=0.5;exitY=0;exitDx=0;exitDy=0;entryX=0.5;entryY=1;entryDx=0;entryDy=0;" edge="1" parent="1" source="dTeIS4s1cG9BcwlWkZZ--11" target="dTeIS4s1cG9BcwlWkZZ--18">
          <mxGeometry relative="1" as="geometry" />
        </mxCell>
        <mxCell id="dTeIS4s1cG9BcwlWkZZ--106" value="Включает" style="edgeLabel;html=1;align=center;verticalAlign=middle;resizable=0;points=[];" vertex="1" connectable="0" parent="dTeIS4s1cG9BcwlWkZZ--19">
          <mxGeometry x="-0.0494" y="-1" relative="1" as="geometry">
            <mxPoint as="offset" />
          </mxGeometry>
        </mxCell>
        <mxCell id="dTeIS4s1cG9BcwlWkZZ--24" style="edgeStyle=orthogonalEdgeStyle;rounded=0;orthogonalLoop=1;jettySize=auto;html=1;exitX=0.5;exitY=1;exitDx=0;exitDy=0;entryX=0.5;entryY=0;entryDx=0;entryDy=0;" edge="1" parent="1" source="dTeIS4s1cG9BcwlWkZZ--11" target="dTeIS4s1cG9BcwlWkZZ--12">
          <mxGeometry relative="1" as="geometry" />
        </mxCell>
        <mxCell id="dTeIS4s1cG9BcwlWkZZ--107" value="Содержит" style="edgeLabel;html=1;align=center;verticalAlign=middle;resizable=0;points=[];" vertex="1" connectable="0" parent="dTeIS4s1cG9BcwlWkZZ--24">
          <mxGeometry x="0.0824" y="1" relative="1" as="geometry">
            <mxPoint as="offset" />
          </mxGeometry>
        </mxCell>
        <mxCell id="dTeIS4s1cG9BcwlWkZZ--25" style="edgeStyle=orthogonalEdgeStyle;rounded=0;orthogonalLoop=1;jettySize=auto;html=1;exitX=0;exitY=0.5;exitDx=0;exitDy=0;entryX=1;entryY=0.5;entryDx=0;entryDy=0;" edge="1" parent="1" source="dTeIS4s1cG9BcwlWkZZ--11" target="dTeIS4s1cG9BcwlWkZZ--14">
          <mxGeometry relative="1" as="geometry" />
        </mxCell>
        <mxCell id="dTeIS4s1cG9BcwlWkZZ--105" value="Включает" style="edgeLabel;html=1;align=center;verticalAlign=middle;resizable=0;points=[];" vertex="1" connectable="0" parent="dTeIS4s1cG9BcwlWkZZ--25">
          <mxGeometry x="-0.0735" y="2" relative="1" as="geometry">
            <mxPoint y="-12" as="offset" />
          </mxGeometry>
        </mxCell>
        <mxCell id="dTeIS4s1cG9BcwlWkZZ--11" value="Точки маршрута" style="rounded=1;whiteSpace=wrap;html=1;fillColor=#dae8fc;strokeColor=#6c8ebf;" vertex="1" parent="1">
          <mxGeometry x="294" y="-30" width="120" height="60" as="geometry" />
        </mxCell>
        <mxCell id="dTeIS4s1cG9BcwlWkZZ--42" style="edgeStyle=orthogonalEdgeStyle;rounded=0;orthogonalLoop=1;jettySize=auto;html=1;exitX=0;exitY=0.5;exitDx=0;exitDy=0;entryX=1;entryY=0.5;entryDx=0;entryDy=0;" edge="1" parent="1" source="dTeIS4s1cG9BcwlWkZZ--12" target="dTeIS4s1cG9BcwlWkZZ--23">
          <mxGeometry relative="1" as="geometry" />
        </mxCell>
        <mxCell id="dTeIS4s1cG9BcwlWkZZ--43" style="edgeStyle=orthogonalEdgeStyle;rounded=0;orthogonalLoop=1;jettySize=auto;html=1;exitX=0;exitY=0.5;exitDx=0;exitDy=0;entryX=1;entryY=0.5;entryDx=0;entryDy=0;" edge="1" parent="1" source="dTeIS4s1cG9BcwlWkZZ--12" target="dTeIS4s1cG9BcwlWkZZ--30">
          <mxGeometry relative="1" as="geometry" />
        </mxCell>
        <mxCell id="dTeIS4s1cG9BcwlWkZZ--109" value="Включает" style="edgeLabel;html=1;align=center;verticalAlign=middle;resizable=0;points=[];" vertex="1" connectable="0" parent="dTeIS4s1cG9BcwlWkZZ--43">
          <mxGeometry x="-0.7983" y="-4" relative="1" as="geometry">
            <mxPoint x="-16" y="-6" as="offset" />
          </mxGeometry>
        </mxCell>
        <mxCell id="dTeIS4s1cG9BcwlWkZZ--12" value="Координаты" style="rounded=1;whiteSpace=wrap;html=1;" vertex="1" parent="1">
          <mxGeometry x="294" y="60" width="120" height="60" as="geometry" />
        </mxCell>
        <mxCell id="dTeIS4s1cG9BcwlWkZZ--95" style="edgeStyle=orthogonalEdgeStyle;rounded=0;orthogonalLoop=1;jettySize=auto;html=1;exitX=0.5;exitY=0;exitDx=0;exitDy=0;entryX=1;entryY=0.5;entryDx=0;entryDy=0;" edge="1" parent="1" source="dTeIS4s1cG9BcwlWkZZ--13" target="dTeIS4s1cG9BcwlWkZZ--93">
          <mxGeometry relative="1" as="geometry" />
        </mxCell>
        <mxCell id="dTeIS4s1cG9BcwlWkZZ--96" style="edgeStyle=orthogonalEdgeStyle;rounded=0;orthogonalLoop=1;jettySize=auto;html=1;exitX=0.5;exitY=0;exitDx=0;exitDy=0;entryX=0.5;entryY=1;entryDx=0;entryDy=0;" edge="1" parent="1" source="dTeIS4s1cG9BcwlWkZZ--13" target="dTeIS4s1cG9BcwlWkZZ--91">
          <mxGeometry relative="1" as="geometry">
            <Array as="points">
              <mxPoint x="520" y="-260" />
              <mxPoint x="354" y="-260" />
            </Array>
          </mxGeometry>
        </mxCell>
        <mxCell id="dTeIS4s1cG9BcwlWkZZ--97" style="edgeStyle=orthogonalEdgeStyle;rounded=0;orthogonalLoop=1;jettySize=auto;html=1;exitX=0.5;exitY=0;exitDx=0;exitDy=0;entryX=0.5;entryY=1;entryDx=0;entryDy=0;" edge="1" parent="1" source="dTeIS4s1cG9BcwlWkZZ--13" target="dTeIS4s1cG9BcwlWkZZ--92">
          <mxGeometry relative="1" as="geometry" />
        </mxCell>
        <mxCell id="dTeIS4s1cG9BcwlWkZZ--98" style="edgeStyle=orthogonalEdgeStyle;rounded=0;orthogonalLoop=1;jettySize=auto;html=1;exitX=0.5;exitY=0;exitDx=0;exitDy=0;entryX=0.5;entryY=1;entryDx=0;entryDy=0;" edge="1" parent="1" source="dTeIS4s1cG9BcwlWkZZ--13" target="dTeIS4s1cG9BcwlWkZZ--90">
          <mxGeometry relative="1" as="geometry">
            <Array as="points">
              <mxPoint x="584.12" y="-260" />
              <mxPoint x="754.12" y="-260" />
            </Array>
          </mxGeometry>
        </mxCell>
        <mxCell id="dTeIS4s1cG9BcwlWkZZ--99" style="edgeStyle=orthogonalEdgeStyle;rounded=0;orthogonalLoop=1;jettySize=auto;html=1;exitX=0.5;exitY=0;exitDx=0;exitDy=0;entryX=0;entryY=0.5;entryDx=0;entryDy=0;" edge="1" parent="1" source="dTeIS4s1cG9BcwlWkZZ--13" target="dTeIS4s1cG9BcwlWkZZ--94">
          <mxGeometry relative="1" as="geometry" />
        </mxCell>
        <mxCell id="dTeIS4s1cG9BcwlWkZZ--103" value="Включает" style="edgeLabel;html=1;align=center;verticalAlign=middle;resizable=0;points=[];" vertex="1" connectable="0" parent="dTeIS4s1cG9BcwlWkZZ--99">
          <mxGeometry x="-0.7294" relative="1" as="geometry">
            <mxPoint as="offset" />
          </mxGeometry>
        </mxCell>
        <mxCell id="dTeIS4s1cG9BcwlWkZZ--13" value="Тип транспорта" style="rounded=1;whiteSpace=wrap;html=1;fillColor=#dae8fc;strokeColor=#6c8ebf;" vertex="1" parent="1">
          <mxGeometry x="524.12" y="-140" width="120" height="60" as="geometry" />
        </mxCell>
        <mxCell id="dTeIS4s1cG9BcwlWkZZ--14" value="Скорость" style="rounded=1;whiteSpace=wrap;html=1;" vertex="1" parent="1">
          <mxGeometry x="90" y="-30" width="120" height="60" as="geometry" />
        </mxCell>
        <mxCell id="dTeIS4s1cG9BcwlWkZZ--88" style="edgeStyle=orthogonalEdgeStyle;rounded=0;orthogonalLoop=1;jettySize=auto;html=1;exitX=0;exitY=0.5;exitDx=0;exitDy=0;entryX=1;entryY=0.5;entryDx=0;entryDy=0;" edge="1" parent="1" source="dTeIS4s1cG9BcwlWkZZ--18" target="dTeIS4s1cG9BcwlWkZZ--84">
          <mxGeometry relative="1" as="geometry" />
        </mxCell>
        <mxCell id="dTeIS4s1cG9BcwlWkZZ--89" style="edgeStyle=orthogonalEdgeStyle;rounded=0;orthogonalLoop=1;jettySize=auto;html=1;exitX=0;exitY=0.5;exitDx=0;exitDy=0;entryX=1;entryY=0.5;entryDx=0;entryDy=0;" edge="1" parent="1" source="dTeIS4s1cG9BcwlWkZZ--18" target="dTeIS4s1cG9BcwlWkZZ--85">
          <mxGeometry relative="1" as="geometry" />
        </mxCell>
        <mxCell id="dTeIS4s1cG9BcwlWkZZ--104" value="Состоит из" style="edgeLabel;html=1;align=center;verticalAlign=middle;resizable=0;points=[];" vertex="1" connectable="0" parent="dTeIS4s1cG9BcwlWkZZ--89">
          <mxGeometry x="-0.7372" y="4" relative="1" as="geometry">
            <mxPoint x="-12" y="6" as="offset" />
          </mxGeometry>
        </mxCell>
        <mxCell id="dTeIS4s1cG9BcwlWkZZ--18" value="Момент замера" style="rounded=1;whiteSpace=wrap;html=1;" vertex="1" parent="1">
          <mxGeometry x="294" y="-140" width="120" height="60" as="geometry" />
        </mxCell>
        <mxCell id="dTeIS4s1cG9BcwlWkZZ--33" style="edgeStyle=orthogonalEdgeStyle;rounded=0;orthogonalLoop=1;jettySize=auto;html=1;exitX=0.5;exitY=0;exitDx=0;exitDy=0;entryX=0.5;entryY=1;entryDx=0;entryDy=0;" edge="1" parent="1" source="dTeIS4s1cG9BcwlWkZZ--21" target="dTeIS4s1cG9BcwlWkZZ--22">
          <mxGeometry relative="1" as="geometry" />
        </mxCell>
        <mxCell id="dTeIS4s1cG9BcwlWkZZ--121" value="Содержит" style="edgeLabel;html=1;align=center;verticalAlign=middle;resizable=0;points=[];" vertex="1" connectable="0" parent="dTeIS4s1cG9BcwlWkZZ--33">
          <mxGeometry x="0.1529" y="-6" relative="1" as="geometry">
            <mxPoint as="offset" />
          </mxGeometry>
        </mxCell>
        <mxCell id="dTeIS4s1cG9BcwlWkZZ--34" style="edgeStyle=orthogonalEdgeStyle;rounded=0;orthogonalLoop=1;jettySize=auto;html=1;exitX=0;exitY=0.5;exitDx=0;exitDy=0;entryX=1;entryY=0.5;entryDx=0;entryDy=0;" edge="1" parent="1" source="dTeIS4s1cG9BcwlWkZZ--21" target="dTeIS4s1cG9BcwlWkZZ--4">
          <mxGeometry relative="1" as="geometry" />
        </mxCell>
        <mxCell id="dTeIS4s1cG9BcwlWkZZ--110" value="Включает" style="edgeLabel;html=1;align=center;verticalAlign=middle;resizable=0;points=[];" vertex="1" connectable="0" parent="dTeIS4s1cG9BcwlWkZZ--34">
          <mxGeometry x="0.2941" y="-1" relative="1" as="geometry">
            <mxPoint x="20" y="-9" as="offset" />
          </mxGeometry>
        </mxCell>
        <mxCell id="dTeIS4s1cG9BcwlWkZZ--83" style="edgeStyle=orthogonalEdgeStyle;rounded=0;orthogonalLoop=1;jettySize=auto;html=1;exitX=1;exitY=0.5;exitDx=0;exitDy=0;entryX=0;entryY=0.5;entryDx=0;entryDy=0;" edge="1" parent="1" source="dTeIS4s1cG9BcwlWkZZ--21" target="dTeIS4s1cG9BcwlWkZZ--81">
          <mxGeometry relative="1" as="geometry" />
        </mxCell>
        <mxCell id="dTeIS4s1cG9BcwlWkZZ--123" value="Включает" style="edgeLabel;html=1;align=center;verticalAlign=middle;resizable=0;points=[];" vertex="1" connectable="0" parent="dTeIS4s1cG9BcwlWkZZ--83">
          <mxGeometry x="0.1662" relative="1" as="geometry">
            <mxPoint as="offset" />
          </mxGeometry>
        </mxCell>
        <mxCell id="dTeIS4s1cG9BcwlWkZZ--21" value="Административные характеристики" style="rounded=1;whiteSpace=wrap;html=1;fillColor=#dae8fc;strokeColor=#6c8ebf;" vertex="1" parent="1">
          <mxGeometry x="294" y="240" width="120" height="60" as="geometry" />
        </mxCell>
        <mxCell id="dTeIS4s1cG9BcwlWkZZ--29" style="edgeStyle=orthogonalEdgeStyle;rounded=0;orthogonalLoop=1;jettySize=auto;html=1;exitX=0.5;exitY=0;exitDx=0;exitDy=0;entryX=0.5;entryY=1;entryDx=0;entryDy=0;" edge="1" parent="1" source="dTeIS4s1cG9BcwlWkZZ--22" target="dTeIS4s1cG9BcwlWkZZ--12">
          <mxGeometry relative="1" as="geometry" />
        </mxCell>
        <mxCell id="dTeIS4s1cG9BcwlWkZZ--108" value="Состоит из" style="edgeLabel;html=1;align=center;verticalAlign=middle;resizable=0;points=[];" vertex="1" connectable="0" parent="dTeIS4s1cG9BcwlWkZZ--29">
          <mxGeometry x="0.1922" y="-3" relative="1" as="geometry">
            <mxPoint as="offset" />
          </mxGeometry>
        </mxCell>
        <mxCell id="dTeIS4s1cG9BcwlWkZZ--22" value="Границы" style="rounded=1;whiteSpace=wrap;html=1;" vertex="1" parent="1">
          <mxGeometry x="294" y="150" width="120" height="60" as="geometry" />
        </mxCell>
        <mxCell id="dTeIS4s1cG9BcwlWkZZ--23" value="Долгота" style="rounded=1;whiteSpace=wrap;html=1;" vertex="1" parent="1">
          <mxGeometry x="90" y="60" width="120" height="60" as="geometry" />
        </mxCell>
        <mxCell id="dTeIS4s1cG9BcwlWkZZ--28" value="Протяженность" style="rounded=1;whiteSpace=wrap;html=1;" vertex="1" parent="1">
          <mxGeometry x="904.12" y="-30" width="120" height="60" as="geometry" />
        </mxCell>
        <mxCell id="dTeIS4s1cG9BcwlWkZZ--30" value="Широта" style="rounded=1;whiteSpace=wrap;html=1;" vertex="1" parent="1">
          <mxGeometry x="90" y="150" width="120" height="60" as="geometry" />
        </mxCell>
        <mxCell id="dTeIS4s1cG9BcwlWkZZ--36" value="Погода" style="rounded=1;whiteSpace=wrap;html=1;" vertex="1" parent="1">
          <mxGeometry x="524.12" y="457.06" width="120" height="60" as="geometry" />
        </mxCell>
        <mxCell id="dTeIS4s1cG9BcwlWkZZ--58" style="edgeStyle=orthogonalEdgeStyle;rounded=0;orthogonalLoop=1;jettySize=auto;html=1;exitX=1;exitY=0.5;exitDx=0;exitDy=0;entryX=0;entryY=0.5;entryDx=0;entryDy=0;" edge="1" parent="1" source="dTeIS4s1cG9BcwlWkZZ--41" target="dTeIS4s1cG9BcwlWkZZ--46">
          <mxGeometry relative="1" as="geometry" />
        </mxCell>
        <mxCell id="dTeIS4s1cG9BcwlWkZZ--113" value="Включает" style="edgeLabel;html=1;align=center;verticalAlign=middle;resizable=0;points=[];" vertex="1" connectable="0" parent="dTeIS4s1cG9BcwlWkZZ--58">
          <mxGeometry x="-0.3082" y="6" relative="1" as="geometry">
            <mxPoint x="5" y="-4" as="offset" />
          </mxGeometry>
        </mxCell>
        <mxCell id="dTeIS4s1cG9BcwlWkZZ--69" style="edgeStyle=orthogonalEdgeStyle;rounded=0;orthogonalLoop=1;jettySize=auto;html=1;exitX=0;exitY=0.5;exitDx=0;exitDy=0;entryX=1;entryY=0.5;entryDx=0;entryDy=0;" edge="1" parent="1" source="dTeIS4s1cG9BcwlWkZZ--41" target="dTeIS4s1cG9BcwlWkZZ--45">
          <mxGeometry relative="1" as="geometry" />
        </mxCell>
        <mxCell id="dTeIS4s1cG9BcwlWkZZ--114" value="Включает" style="edgeLabel;html=1;align=center;verticalAlign=middle;resizable=0;points=[];" vertex="1" connectable="0" parent="dTeIS4s1cG9BcwlWkZZ--69">
          <mxGeometry x="-0.0078" y="3" relative="1" as="geometry">
            <mxPoint as="offset" />
          </mxGeometry>
        </mxCell>
        <mxCell id="dTeIS4s1cG9BcwlWkZZ--41" value="Освещение" style="rounded=1;whiteSpace=wrap;html=1;" vertex="1" parent="1">
          <mxGeometry x="904.12" y="457.06" width="120" height="60" as="geometry" />
        </mxCell>
        <mxCell id="dTeIS4s1cG9BcwlWkZZ--68" style="edgeStyle=orthogonalEdgeStyle;rounded=0;orthogonalLoop=1;jettySize=auto;html=1;exitX=0;exitY=0.5;exitDx=0;exitDy=0;entryX=1;entryY=0.5;entryDx=0;entryDy=0;" edge="1" parent="1" source="dTeIS4s1cG9BcwlWkZZ--45" target="dTeIS4s1cG9BcwlWkZZ--36">
          <mxGeometry relative="1" as="geometry" />
        </mxCell>
        <mxCell id="dTeIS4s1cG9BcwlWkZZ--115" value="Состоит из" style="edgeLabel;html=1;align=center;verticalAlign=middle;resizable=0;points=[];" vertex="1" connectable="0" parent="dTeIS4s1cG9BcwlWkZZ--68">
          <mxGeometry x="0.0314" y="4" relative="1" as="geometry">
            <mxPoint as="offset" />
          </mxGeometry>
        </mxCell>
        <mxCell id="dTeIS4s1cG9BcwlWkZZ--45" value="Естественное" style="rounded=1;whiteSpace=wrap;html=1;" vertex="1" parent="1">
          <mxGeometry x="704.12" y="457.06" width="120" height="60" as="geometry" />
        </mxCell>
        <mxCell id="dTeIS4s1cG9BcwlWkZZ--46" value="Искусственное" style="rounded=1;whiteSpace=wrap;html=1;" vertex="1" parent="1">
          <mxGeometry x="1094.12" y="457.06" width="120" height="60" as="geometry" />
        </mxCell>
        <mxCell id="dTeIS4s1cG9BcwlWkZZ--81" value="Название" style="rounded=1;whiteSpace=wrap;html=1;" vertex="1" parent="1">
          <mxGeometry x="524.12" y="240" width="120" height="60" as="geometry" />
        </mxCell>
        <mxCell id="dTeIS4s1cG9BcwlWkZZ--84" value="Дата" style="rounded=1;whiteSpace=wrap;html=1;" vertex="1" parent="1">
          <mxGeometry x="90" y="-140" width="120" height="60" as="geometry" />
        </mxCell>
        <mxCell id="dTeIS4s1cG9BcwlWkZZ--85" value="Время" style="rounded=1;whiteSpace=wrap;html=1;" vertex="1" parent="1">
          <mxGeometry x="90" y="-230" width="120" height="60" as="geometry" />
        </mxCell>
        <mxCell id="dTeIS4s1cG9BcwlWkZZ--90" value="Трамвай" style="rounded=1;whiteSpace=wrap;html=1;" vertex="1" parent="1">
          <mxGeometry x="694.12" y="-340" width="120" height="60" as="geometry" />
        </mxCell>
        <mxCell id="dTeIS4s1cG9BcwlWkZZ--91" value="Автобус" style="rounded=1;whiteSpace=wrap;html=1;" vertex="1" parent="1">
          <mxGeometry x="360" y="-340" width="120" height="60" as="geometry" />
        </mxCell>
        <mxCell id="dTeIS4s1cG9BcwlWkZZ--92" value="Троллейбус" style="rounded=1;whiteSpace=wrap;html=1;" vertex="1" parent="1">
          <mxGeometry x="524.12" y="-340" width="120" height="60" as="geometry" />
        </mxCell>
        <mxCell id="dTeIS4s1cG9BcwlWkZZ--93" value="Мототранспорт" style="rounded=1;whiteSpace=wrap;html=1;" vertex="1" parent="1">
          <mxGeometry x="360" y="-240" width="120" height="60" as="geometry" />
        </mxCell>
        <mxCell id="dTeIS4s1cG9BcwlWkZZ--94" value="Легковой автомобиль" style="rounded=1;whiteSpace=wrap;html=1;" vertex="1" parent="1">
          <mxGeometry x="694.12" y="-240" width="120" height="60" as="geometry" />
        </mxCell>
      </root>
    </mxGraphModel>
  </diagram>
</mxfile>
